<svg version="1.1" id="katman_1" xmlns="http://www.w3.org/2000/svg" x="0" y="0" viewBox="0 0 595.3 841.9" xml:space="preserve"><style>.st0{fill:#fff;stroke:#020203;stroke-width:.25;stroke-miterlimit:10}.st1{fill:#22afde}.st2{fill:#014c6a}.st3{fill:#fff}.st4{fill:#3f3f3f}</style><path class="st1" d="M382 412.3s25.6-10.6 35.2-22.2c10.1-11.2 24.8-27.8 31.2-48.5 6.4-20.7 17.5-48.8 17.5-48.8s5.5-12 14.7-22.4c4.9-5.5 10.9-10 17.6-12.8 7.5-3.1 11.9-2.6 17.5-2.4 7.9.3 15.5 3.4 21.3 8.9 3.3 3.1 4.7 5.8 4.7 5.8s2 2 4.5 10.5c.7 2.3 1.2 4.8 1.4 7.2.6 6.4.9 12 .9 15.9.1 3.4-.1 6.7-.5 10.1-.5 3.8-1.2 9.4-2.1 14.3-2.2 9.5-6.7 20.3-6.7 20.3s-7.6 22.2-31.6 57.9c-3.3 4.9-7.1 9.5-11.5 13.5-36.5 33.8-86.7 43.1-105 42.6 2.4-4.4-.4-25-1.4-28.2-1-3.5-7.7-21.7-7.7-21.7z"/><path class="st2" d="M345.4 296.3s56.2 52.7 48.2 79.3c0 0-5.7 40.5-17.4 35.7-11.7-4.8-33.2-115-33.2-115h2.4zM181.9 297.9s-56.2 52.7-48.2 79.3c0 0 5.7 40.5 17.4 35.7 11.7-4.8 33.2-115 33.2-115h-2.4z"/><path class="st1" d="M190.7 278.7s-45.3 127.7-49.7 149c-4.4 21.3-50.7 106.9 119.5 99.9 0 0 183.3-.5 128.2-98.8L338 278.7s-60 24-147.3 0z"/><path class="st3" d="M212.2 300.1S93.5 522.5 259.1 514.7c165.5-7.8 52.8-214.6 52.8-214.6s-45.7 19.8-99.7 0z"/><path class="st1" d="M122.7 101.5s-32.7 33.1-3.3 90.4c0 0 25.8-54.4 87.4-55.7-.1 0-68.1-40.8-84.1-34.7zM380.2 95.5s32.7 33.1 3.3 90.4c0 0-25.8-54.4-87.4-55.7 0 .1 68-40.8 84.1-34.7z"/><path class="st3" d="M122.5 108.7s-24 31.3-2.8 79.3c0 0 8.8-23.4 37.2-36.5 0 .1-7-23.1-34.4-42.8zM379.3 103.5s24.7 30.8 4.6 79.3c0 0-9.4-23.1-38-35.6.1 0 6.5-23.3 33.4-43.7z"/><path class="st1" d="M90.3 222.9c.9-9.2 35.6-48.3 49.5-60.7 13.9-12.4 29.7-30.6 86.9-45.1 0 0 37.3-13.9 89.1 10.3 0 0 87.8 31.5 106.9 102.7l-7.9-3.9 2.4 9.4-5.5-1.5 1.5 6.7s-33.3 47.6-93 63.3c0 0-60.9 16.7-122.7-1.5S113 272 99 237.2l-3.9 4.2-1.2-7.9-2.7 3.3c.2-.1-1.8-4.8-.9-13.9z"/><path class="st2" d="M97.3 223.3s25-42.9 63.8-53.6c0 0 3.5-4.8-8.7-4.2-12.2.6 30.1-17.4 41.5-.1 0 0 4.2-9.5-7.4-10.4s46.8-4.5 70 25.9l10.1 7.9-5.7 38.9h-10.4s-1.2 24.1-48.3 41.1c-47.1 17-88.5-10.4-88.5-10.4s-7.7-5.7-13.4-18.2-3-16.9-3-16.9z"/><path class="st2" d="M409.3 230.2s-20.3-45.3-57.1-59.7c0 0-3-5.2 8.9-3.5s-27.7-20.4-40.4-3.8c0 0-3.2-10 8.2-9.9 11.4.1-45.2-8.8-70.7 20.1l-10.6 7.1 1.9 40.1 10.2.9s-1.1 24.7 43.2 46.2c26.6 12.9 52.6 9.4 69.3 4.5 3.8-1.1 7.2-2.3 9.9-3.4 5.1-2.1 8.1-3.7 8.1-3.7s3.1-1.9 7-6.3c2.4-2.7 15.5-15.1 16-17.8.6-3.7-3.9-10.8-3.9-10.8z"/><ellipse class="st3" cx="204.4" cy="209.1" rx="24" ry="30.1"/><ellipse class="st3" cx="317.8" cy="210.4" rx="24" ry="30.1"/><ellipse class="st4" cx="202.1" cy="206.4" rx="14.7" ry="18.4"/><ellipse class="st4" cx="317.8" cy="208.3" rx="14.7" ry="18.4"/><ellipse class="st3" cx="309.8" cy="195.9" rx="5.6" ry="8.7"/><ellipse class="st3" cx="193" cy="195.9" rx="5.6" ry="8.7"/><ellipse cx="256.4" cy="235.6" rx="17.4" ry="10.8" fill="#fbba36"/><path class="st4" d="M322.9 171s-6 2.5 0 3.8c0 0 6-3.8 12.3 7l2.3 2.5s5.5 6.3 2 0c-.1 0-5.4-14.8-16.6-13.3zM178.2 175.9s14-3.8 2.8 3.4c0 0-4.4 1.1-6.3 3.3s-2.6 5.5-2.6 5.5v4.1s-1.1 11-4.1 0c-.1-.1-.8-12.7 10.2-16.3zM235.5 270.1s32.9 19.8 41.9-5.4c0 0 1.6-1.4 1.1.4-.5 1.8-11.5 25.4-43.1 5.9-.5-.3-2.3-2.2.1-.9z"/><path class="st2" d="M327.1 538.2s24.8 18.6 2.5 36.8-44.3-8.8-44.3-8.8-28.9-27.6 5.3-34.8c0 0 19.9-6.2 36.5 6.8z"/><path class="st2" d="M218.3 544.5s-24.8 18.6-2.5 36.8 44.3-8.8 44.3-8.8 28.9-27.6-5.3-34.8c0 0-20-6.2-36.5 6.8z"/><ellipse cx="259.9" cy="231.1" rx="8.7" ry="5.3" fill="#fff7e0"/><path class="st0" d="M464.2 310.1s-6 10-11.3 32c-.2.7.2 1.5.9 1.7 39.7 13.7 41.5 29.8 46.3 32.5.7.4 1.6.2 2.1-.5 2.9-4.6 8.1-18.4 14.4-39.2.1-.3.1-.7-.1-1-.3-.5-1-1.4-2.6-2.8-2.1-2-5.9-5.1-12.5-9.8-14.6-11.3-37.2-12.9-37.2-12.9M413.5 405.7c-.2.2-.3.4-.4.7-.6 2.7 6.3 4.6 13.5 14.8 6.8 10.2 9.2 14.4 10.7 18.8.5 1.4 1.8 2.2 3.2 2 9.5-1.5 30.4-21.7 30.4-23.6-4.2-7.6-26.7-31.4-37.3-33.8-1.1-.3-2.3 0-3.1.8-1.8 1.6-3.5 4.6-6.1 7.5-3.1 3.5-9.7 11.4-10.9 12.8z"/><path class="st2" d="M464.4 306.8L449.6 345s42.7 15.8 64.4 47.2c0 0 23.1-47.4 22.1-58.1-1-10.7-54.1-36.2-71.7-27.3zM432.5 375.4s-22 26.8-24.3 27.4c-2.3.6 25.1 18.7 28.4 48.7 0 0 41.5-18 48.5-27.8s-35.6-45.8-52.6-48.3z"/></svg>